<svg width="21" height="20" viewBox="0 0 21 20" fill="none" xmlns="http://www.w3.org/2000/svg">
<path d="M3.15 16.1894V20L9.74085 16.1894H14.7C15.8582 16.1894 16.8 15.2818 16.8 14.1657V6.07103C16.8 4.95497 15.8582 4.04735 14.7 4.04735H2.1C0.94185 4.04735 0 4.95497 0 6.07103V14.1657C0 15.2818 0.94185 16.1894 2.1 16.1894H3.15ZM2.1 6.07103H14.7V14.1657H9.15915L5.25 16.4262V14.1657H2.1V6.07103Z" fill="#D4D3D4"/>
<path d="M18.9 0H6.3C5.14185 0 4.2 0.907619 4.2 2.02368H16.8C17.9581 2.02368 18.9 2.9313 18.9 4.04735V12.1421C20.0581 12.1421 21 11.2344 21 10.1184V2.02368C21 0.907619 20.0581 0 18.9 0Z" fill="#D4D3D4"/>
</svg>
