<svg width="18" height="19" viewBox="0 0 18 19" fill="none" xmlns="http://www.w3.org/2000/svg">
<path d="M0.0523379 17.1741C0.0523379 17.7264 0.500054 18.1741 1.05234 18.1741H16.9963C17.5485 18.1741 17.9963 17.7264 17.9963 17.1741V16.1741C17.9963 15.6218 17.5485 15.1741 16.9963 15.1741L1.05234 15.1741C0.500053 15.1741 0.0523378 15.6218 0.0523379 16.1741L0.0523379 17.1741Z" fill="#D4D3D4"/>
<path d="M0.0523377 12.1741C0.0523377 12.7264 0.500054 13.1741 1.05234 13.1741L16.9963 13.1741C17.5485 13.1741 17.9963 12.7264 17.9963 12.1741V11.1741C17.9963 10.6218 17.5485 10.1741 16.9963 10.1741L1.05234 10.1741C0.500053 10.1741 0.0523376 10.6218 0.0523376 11.1741L0.0523377 12.1741Z" fill="#D4D3D4"/>
<path d="M1.91887 8.37035C1.39685 8.55065 0.828308 8.27336 0.649003 7.75099L0.324663 6.8061C0.145358 6.28373 0.423185 5.7141 0.945207 5.53379L16.0211 0.326518C16.5431 0.146209 17.1117 0.423503 17.291 0.945871L17.6153 1.89076C17.7946 2.41313 17.5168 2.98277 16.9948 3.16307L1.91887 8.37035Z" fill="#D4D3D4"/>
</svg>
