<svg width="15" height="20" viewBox="0 0 15 20" fill="none" xmlns="http://www.w3.org/2000/svg">
<path fill-rule="evenodd" clip-rule="evenodd" d="M0.164218 7.80686C-0.0462809 8.04969 0.126208 8.42749 0.447574 8.42749H13.7581C14.0795 8.42749 14.252 8.04969 14.0415 7.80686L7.38621 0.129371C7.23669 -0.0431233 6.96903 -0.0431236 6.8195 0.12937L0.164218 7.80686Z" fill="#D4D3D4"/>
<path d="M1.125 9.55249C0.50368 9.55249 0 10.0562 0 10.6775V18.1775C0 18.7988 0.50368 19.3025 1.125 19.3025H5.23364V13.2896C5.23364 13.0825 5.40154 12.9146 5.60864 12.9146H8.59696C8.80407 12.9146 8.97196 13.0825 8.97196 13.2896V19.3025H13.0806C13.7019 19.3025 14.2056 18.7988 14.2056 18.1775V10.6775C14.2056 10.0562 13.7019 9.55249 13.0806 9.55249H1.125Z" fill="#D4D3D4"/>
</svg>
