<svg width="19" height="18" viewBox="0 0 19 18" fill="none" xmlns="http://www.w3.org/2000/svg">
<path d="M9.40053 8C7.09308 8 5.22252 6.20914 5.22252 4C5.22252 1.79086 7.09308 0 9.40053 0C11.708 0 13.5785 1.79086 13.5785 4C13.5785 6.20914 11.708 8 9.40053 8Z" fill="#D4D3D4"/>
<path d="M0.000680686 17.1992C0.405537 12.4265 4.45158 10 9.38313 10C14.3841 10 18.4928 12.2932 18.7989 17.2C18.8111 17.3955 18.7989 18 18.0142 18C14.1438 18 8.3923 18 0.759879 18C0.497927 18 -0.0213724 17.4592 0.000680686 17.1992Z" fill="#D4D3D4"/>
</svg>
